<svg width="1920" height="5248" viewBox="0 0 1920 5248" fill="none" xmlns="http://www.w3.org/2000/svg">
<path opacity="0.0416667" d="M-545.709 -1226.87C-183.747 -805.565 496.604 -342.325 791.534 -163.367C807.565 -136.086 840.932 -80.1467 846.15 -74.6356C852.673 -67.7467 1068.5 15.3233 1012.11 -98.5099C955.718 -212.343 814.509 -431.168 383.784 -786.972C39.2043 -1071.61 -417.797 -1602.08 -603.225 -1831.73C-827.682 -1779.11 -1264.17 -1671.82 -1214.46 -1663.66C-1152.33 -1653.46 -998.162 -1753.49 -545.709 -1226.87Z" stroke="white" stroke-opacity="0.1"/>
<path opacity="0.0833333" d="M-397.227 -1255.38C-73.3604 -804.135 564.027 -283.361 842.238 -79.3799C855.831 -50.8056 884.195 7.82914 888.913 13.7741C894.81 21.2052 1102.58 122.77 1056.32 4.45493C1010.07 -113.86 888.466 -344.159 490.391 -736.149C171.93 -1049.74 -237.099 -1618.02 -401.806 -1862.95C-629.995 -1830.09 -1074.17 -1761.26 -1025.37 -1748.8C-964.362 -1733.23 -802.059 -1819.44 -397.227 -1255.38Z" stroke="white" stroke-opacity="0.1"/>
<path opacity="0.125" d="M-247.279 -1270.43C36.0267 -792.673 625.601 -218.329 884.974 9.12359C896.025 38.7738 919.171 99.6576 923.353 105.991C928.58 113.908 1126.7 233.194 1090.94 111.298C1055.17 -10.5981 954.104 -250.619 591.707 -675.812C301.79 -1015.97 -56.1542 -1617.73 -198.887 -1876.09C-429.072 -1863.24 -877.558 -1833.38 -830.025 -1816.72C-770.609 -1795.88 -601.41 -1867.62 -247.279 -1270.43Z" stroke="white" stroke-opacity="0.1"/>
<path opacity="0.166667" d="M-97.0444 -1271.93C143.544 -771.305 680.817 -147.761 919.38 101.432C927.804 131.932 945.556 194.602 949.17 201.276C953.687 209.618 1140.66 345.718 1115.65 221.168C1090.65 96.6186 1010.88 -151.297 686.925 -606.457C427.757 -970.585 123.622 -1601.25 3.95038 -1871.07C-226.478 -1878.34 -675.861 -1887.68 -629.961 -1866.93C-572.587 -1841 -397.78 -1897.72 -97.0444 -1271.93Z" stroke="white" stroke-opacity="0.1"/>
<path opacity="0.208333" d="M52.2945 -1259.92C248.335 -740.23 729.218 -72.2329 945.154 196.804C950.888 227.923 963.111 291.901 966.129 298.864C969.902 307.569 1144.3 459.447 1130.25 333.191C1116.19 206.936 1058.34 -46.9881 775.28 -528.651C548.835 -913.981 300.823 -1568.76 205.123 -1847.98C-23.7954 -1875.3 -470.654 -1923.77 -426.737 -1899.1C-371.841 -1868.27 -192.756 -1909.54 52.2945 -1259.92Z" stroke="white" stroke-opacity="0.1"/>
<path opacity="0.25" d="M199.563 -1234.52C349.563 -699.723 770.397 7.64331 962.063 294.477C965.063 325.977 971.663 390.777 974.063 397.977C977.063 406.977 1137.56 573.477 1134.56 446.477C1131.56 319.477 1096.06 61.4767 856.063 -443.023C664.063 -846.623 474.063 -1520.52 403.063 -1807.02C177.397 -1854.19 -263.537 -1941.42 -221.937 -1913.02C-169.937 -1877.52 12.0634 -1903.02 199.563 -1234.52Z" stroke="white" stroke-opacity="0.1"/>
<path opacity="0.291667" d="M343.604 -1195.97C446.422 -650.132 804.003 91.2213 969.941 393.668C970.184 425.31 971.111 490.438 972.875 497.82C975.079 507.047 1120.46 686.902 1128.54 560.124C1136.62 433.346 1123.74 173.234 928.622 -350.264C772.528 -769.062 641.986 -1456.96 596.226 -1748.56C375.529 -1815.21 -56.1238 -1940.54 -17.1573 -1908.62C31.5508 -1868.73 215.081 -1878.27 343.604 -1195.97Z" stroke="white" stroke-opacity="0.1"/>
<path opacity="0.333333" d="M483.281 -1144.59C538.135 -591.87 829.742 177.827 968.689 493.585C966.173 525.128 961.42 590.089 962.534 597.597C963.925 606.981 1093.07 798.822 1112.17 673.23C1131.27 547.639 1141.11 287.394 992.365 -251.117C873.366 -681.926 803.274 -1378.58 783.103 -1673.06C569.055 -1758.69 149.968 -1921.17 186.005 -1885.98C231.05 -1841.99 414.713 -1835.5 483.281 -1144.59Z" stroke="white" stroke-opacity="0.1"/>
<path opacity="0.375" d="M617.494 -1080.82C623.966 -525.42 847.38 266.763 958.278 593.43C953.023 624.633 942.626 688.933 943.081 696.509C943.65 705.979 1055.59 908.346 1085.56 784.897C1115.53 661.448 1148.02 403.051 1046.77 -146.375C965.77 -585.916 956.663 -1286.03 962.233 -1581.14C756.464 -1685.11 353.133 -1883.49 385.965 -1845.29C427.005 -1797.54 609.403 -1775.07 617.494 -1080.82Z" stroke="white" stroke-opacity="0.1"/>
<path opacity="0.416667" d="M745.183 -1005.18C703.224 -451.326 856.745 357.315 938.75 692.404C930.795 723.03 914.834 786.18 914.627 793.766C914.368 803.25 1008.24 1014.6 1048.86 894.236C1089.48 773.869 1144.36 519.286 1091.38 -36.8735C1049 -481.801 1100.95 -1180.04 1132.22 -1473.55C936.292 -1595.05 551.785 -1827.83 581.163 -1786.92C617.885 -1735.78 797.631 -1697.49 745.183 -1005.18Z" stroke="white" stroke-opacity="0.1"/>
<path opacity="0.458333" d="M865.339 -918.275C775.269 -370.189 857.727 448.755 910.215 789.716C899.622 819.533 878.217 881.051 877.35 888.59C876.265 898.015 951.362 1116.75 1002.32 1000.38C1053.27 884.008 1130.13 635.177 1125.83 76.5166C1122.39 -370.412 1234.99 -1061.47 1291.72 -1351.13C1107.13 -1489.25 744.376 -1754.66 770.076 -1711.34C802.202 -1657.19 977.926 -1603.38 865.339 -918.275Z" stroke="white" stroke-opacity="0.1"/>
<path opacity="0.5" d="M977.008 -820.815C839.512 -282.665 850.281 540.35 872.853 884.588C859.701 913.368 833.017 972.786 831.495 980.221C829.593 989.516 885.34 1213.96 946.242 1102.47C1007.14 990.989 1105.4 749.804 1149.8 192.894C1185.33 -252.634 1357.73 -931.248 1439.49 -1214.86C1267.64 -1368.55 929.402 -1664.56 951.229 -1619.16C978.512 -1562.42 1148.88 -1493.5 977.008 -820.815Z" stroke="white" stroke-opacity="0.1"/>
<path opacity="0.541667" d="M1079.3 -713.577C895.428 -189.458 834.426 631.363 826.909 976.259C811.299 1003.78 779.538 1060.65 777.374 1067.92C774.669 1077.02 810.643 1305.47 881.03 1199.71C951.416 1093.96 1070.32 862.256 1163.09 311.335C1237.31 -129.401 1468.2 -790.407 1574.37 -1065.82C1416.57 -1233.89 1105.42 -1558.26 1123.2 -1511.13C1145.44 -1452.23 1309.15 -1368.73 1079.3 -713.577Z" stroke="white" stroke-opacity="0.1"/>
<path opacity="0.583333" d="M1171.41 -597.414C942.554 -91.3151 810.244 721.066 772.696 1063.99C754.747 1090.05 718.15 1143.93 715.36 1150.99C711.873 1159.82 727.799 1390.53 807.135 1291.31C886.471 1192.1 1025.12 971.639 1165.55 430.901C1277.9 -1.69022 1565.53 -640.057 1695.3 -905.167C1552.74 -1086.35 1271.04 -1436.61 1284.65 -1388.11C1301.67 -1327.49 1457.48 -1230.04 1171.41 -597.414Z" stroke="white" stroke-opacity="0.1"/>
<path opacity="0.625" d="M1252.59 -473.249C980.491 10.9779 777.881 808.736 710.588 1147.09C690.436 1171.48 649.282 1221.97 645.888 1228.76C641.645 1237.24 637.403 1468.47 725.084 1376.54C812.765 1284.62 970.096 1077.08 1157.13 550.642C1306.75 129.489 1648.92 -481.381 1801.3 -734.171C1675.08 -927.094 1424.98 -1300.56 1434.31 -1251.07C1445.98 -1189.19 1592.7 -1078.53 1252.59 -473.249Z" stroke="white" stroke-opacity="0.1"/>
<path opacity="0.666667" d="M1322.18 -342.065C1008.91 116.605 737.546 893.668 641.019 1224.87C618.817 1247.41 573.42 1294.12 569.447 1300.59C564.481 1308.67 540.102 1538.65 635.462 1454.71C730.821 1370.78 905.641 1177.75 1137.84 669.61C1323.6 263.1 1717.71 -315.623 1891.54 -554.171C1782.62 -757.359 1566.02 -1151.21 1571 -1101.08C1577.23 -1038.43 1713.75 -915.401 1322.18 -342.065Z" stroke="white" stroke-opacity="0.1"/>
<path opacity="0.708333" d="M1379.61 -204.898C1027.57 224.724 689.506 975.179 564.482 1296.7C540.399 1317.23 491.104 1359.8 486.582 1365.9C480.931 1373.52 436.601 1600.49 538.913 1525.19C641.224 1449.89 832.203 1272.83 1107.81 786.862C1328.29 398.089 1771.34 -144.083 1965.3 -366.573C1874.5 -578.482 1693.05 -989.708 1693.65 -939.342C1694.39 -876.384 1819.67 -741.924 1379.61 -204.898Z" stroke="white" stroke-opacity="0.1"/>
<path opacity="0.75" d="M1424.42 -62.8299C1036.27 334.474 634.091 1052.61 481.519 1362.01C455.74 1380.36 402.921 1418.48 397.886 1424.16C391.591 1431.25 327.648 1653.5 436.133 1587.4C544.619 1521.31 750.303 1361.56 1067.21 901.466C1320.74 533.389 1809.36 31.8941 2021.97 -172.844C1949.99 -391.86 1805.07 -817.336 1801.27 -767.11C1796.53 -704.326 1909.61 -559.46 1424.42 -62.8299Z" stroke="white" stroke-opacity="0.1"/>
<path opacity="0.791667" d="M1456.22 83.0194C1034.92 444.982 571.683 1125.33 392.726 1420.26C365.445 1436.29 309.505 1469.66 303.994 1474.88C297.105 1481.4 214.035 1697.23 327.869 1640.84C441.702 1584.45 660.526 1443.24 1016.33 1012.51C1300.97 667.933 1831.44 210.932 2061.09 25.504C2008.46 -198.953 1901.18 -635.441 1893.02 -585.736C1882.82 -523.605 1982.85 -369.434 1456.22 83.0194Z" stroke="white" stroke-opacity="0.1"/>
<path opacity="0.833333" d="M1474.74 231.502C1023.49 555.368 502.72 1192.76 298.739 1470.97C270.164 1484.56 211.53 1512.92 205.585 1517.64C198.153 1523.54 96.5888 1731.31 214.904 1685.05C333.219 1638.79 563.518 1517.19 955.508 1119.12C1269.1 800.659 1837.37 391.63 2082.31 226.923C2049.45 -1.26633 1980.62 -445.444 1968.16 -396.639C1952.58 -335.633 2038.79 -173.331 1474.74 231.502Z" stroke="white" stroke-opacity="0.1"/>
<path opacity="0.875" d="M1479.79 381.45C1002.03 664.755 427.688 1254.33 200.235 1513.7C170.585 1524.75 109.701 1547.9 103.368 1552.08C95.4507 1557.31 -23.8355 1755.43 98.0606 1719.67C219.957 1683.9 459.978 1582.83 885.171 1220.44C1225.32 930.519 1827.09 572.575 2085.45 429.842C2072.6 199.657 2042.74 -248.829 2026.07 -201.296C2005.24 -141.88 2076.98 27.3185 1479.79 381.45Z" stroke="white" stroke-opacity="0.1"/>
<path opacity="0.916667" d="M1471.29 531.684C970.663 772.273 347.12 1309.55 97.9268 1548.11C67.4263 1556.53 4.75687 1574.28 -1.91699 1577.9C-10.2593 1582.42 -146.359 1769.39 -21.8096 1744.38C102.74 1719.37 350.656 1639.61 805.816 1315.65C1169.94 1056.49 1800.61 752.351 2070.43 632.679C2077.69 402.25 2087.04 -47.132 2066.29 -1.23243C2040.36 56.1421 2097.08 230.949 1471.29 531.684Z" stroke="white" stroke-opacity="0.1"/>
<path opacity="0.958333" d="M1449.28 681.023C929.588 877.063 261.592 1357.95 -7.44548 1573.88C-38.5641 1579.62 -102.542 1591.84 -109.506 1594.86C-118.21 1598.63 -270.088 1773.03 -143.833 1758.97C-17.5775 1744.92 236.347 1687.07 718.01 1404.01C1103.34 1177.56 1758.12 929.552 2037.34 833.852C2064.66 604.933 2113.13 158.075 2088.46 201.992C2057.63 256.888 2098.89 435.973 1449.28 681.023Z" stroke="white" stroke-opacity="0.1"/>
<path d="M1413.88 828.292C879.082 978.292 171.715 1399.13 -115.118 1590.79C-146.618 1593.79 -211.418 1600.39 -218.618 1602.79C-227.618 1605.79 -394.118 1766.29 -267.118 1763.29C-140.118 1760.29 117.882 1724.79 622.382 1484.79C1025.98 1292.79 1699.88 1102.79 1986.38 1031.79C2033.55 806.125 2120.78 365.192 2092.38 406.792C2056.88 458.792 2082.38 640.792 1413.88 828.292Z" stroke="white" stroke-opacity="0.1"/>
<path opacity="0.0416667" d="M1961.72 4087.04C1791.21 4034.23 1421.3 3869.82 1305.67 3634.59C1161.13 3340.54 893.009 3887.53 1091.31 4242.6" stroke="white" stroke-opacity="0.1"/>
<path opacity="0.0833333" d="M1987.8 4153.53C1822.55 4086.07 1468.37 3890.04 1373.68 3645.62C1255.32 3340.1 940.546 3861.64 1107.15 4232.64" stroke="white" stroke-opacity="0.1"/>
<path opacity="0.125" d="M2007.76 4222.25C1849.02 4140.64 1513.28 3914.49 1440.25 3662.75C1348.96 3348.08 989.932 3840.2 1123.57 4224.31" stroke="white" stroke-opacity="0.1"/>
<path opacity="0.166667" d="M2021.43 4292.66C1870.4 4197.53 1555.65 3942.98 1504.84 3685.83C1441.33 3364.4 1040.77 3823.35 1140.42 4217.64" stroke="white" stroke-opacity="0.1"/>
<path opacity="0.208333" d="M2028.68 4364.2C1886.52 4256.26 1595.15 3975.25 1566.95 3714.65C1531.69 3388.91 1092.66 3811.2 1157.56 4212.68" stroke="white" stroke-opacity="0.1"/>
<path opacity="0.25" d="M2029.44 4436.3C1897.23 4316.39 1631.46 4011.05 1626.08 3748.99C1619.35 3421.41 1145.18 3803.83 1174.85 4209.44" stroke="white" stroke-opacity="0.1"/>
<path opacity="0.291667" d="M2023.69 4508.41C1902.44 4377.43 1664.29 4050.09 1681.77 3788.55C1703.61 3461.64 1197.92 3801.28 1192.12 4207.93" stroke="white" stroke-opacity="0.1"/>
<path opacity="0.333333" d="M2011.45 4579.95C1902.07 4438.9 1693.37 4092.05 1733.57 3833.03C1783.82 3509.26 1250.45 3803.54 1209.24 4208.13" stroke="white" stroke-opacity="0.1"/>
<path opacity="0.375" d="M1992.8 4650.36C1896.13 4500.31 1718.44 4136.59 1781.07 3882.06C1859.35 3563.9 1302.36 3810.57 1226.04 4210.04" stroke="white" stroke-opacity="0.1"/>
<path opacity="0.416667" d="M1967.85 4719.08C1884.63 4561.18 1739.32 4183.35 1823.89 3935.25C1929.6 3625.13 1353.24 3822.32 1242.39 4213.61" stroke="white" stroke-opacity="0.1"/>
<path opacity="0.458333" d="M1936.79 4785.57C1867.64 4621.02 1755.81 4231.97 1861.68 3992.18C1994.02 3692.45 1402.67 3838.65 1258.14 4218.8" stroke="white" stroke-opacity="0.1"/>
<path opacity="0.5" d="M1899.81 4849.31C1845.27 4679.36 1767.78 4282.04 1894.15 4052.4C2052.11 3765.34 1450.26 3859.45 1273.14 4225.55" stroke="white" stroke-opacity="0.1"/>
<path opacity="0.541667" d="M1857.2 4909.79C1817.68 4735.73 1775.11 4333.18 1921.01 4115.42C2103.39 3843.22 1495.63 3884.51 1287.28 4233.79" stroke="white" stroke-opacity="0.1"/>
<path opacity="0.583333" d="M1809.25 4966.54C1785.05 4789.7 1777.73 4384.96 1942.05 4180.75C2147.46 3925.48 1538.41 3913.65 1300.42 4243.43" stroke="white" stroke-opacity="0.1"/>
<path opacity="0.625" d="M1756.31 5019.1C1747.61 4840.82 1775.6 4436.99 1957.09 4247.87C2183.97 4011.48 1578.27 3946.61 1312.44 4254.4" stroke="white" stroke-opacity="0.1"/>
<path opacity="0.666667" d="M1698.77 5067.06C1705.64 4888.7 1768.71 4488.84 1966 4316.26C2212.61 4100.54 1614.87 3983.13 1323.23 4266.57" stroke="white" stroke-opacity="0.1"/>
<path opacity="0.708333" d="M1637.03 5110.02C1659.43 4932.94 1757.11 4540.1 1968.69 4385.37C2233.16 4191.97 1647.93 4022.9 1332.69 4279.85" stroke="white" stroke-opacity="0.1"/>
<path opacity="0.75" d="M1571.56 5147.65C1609.3 4973.19 1740.85 4590.36 1965.11 4454.66C2245.44 4285.05 1677.17 4065.62 1340.73 4294.11" stroke="white" stroke-opacity="0.1"/>
<path opacity="0.791667" d="M1502.84 5179.63C1555.64 5009.13 1720.05 4639.22 1955.29 4523.59C2249.33 4379.05 1702.34 4110.93 1347.28 4309.23" stroke="white" stroke-opacity="0.1"/>
<path opacity="0.833333" d="M1431.36 5205.71C1498.82 5040.46 1694.85 4686.29 1939.26 4591.6C2244.78 4473.24 1723.25 4158.46 1352.25 4325.07" stroke="white" stroke-opacity="0.1"/>
<path opacity="0.875" d="M1357.65 5225.67C1439.26 5066.93 1665.41 4731.19 1917.15 4658.16C2231.82 4566.88 1739.71 4207.85 1355.6 4341.48" stroke="white" stroke-opacity="0.1"/>
<path opacity="0.916667" d="M1282.26 5239.34C1377.39 5088.32 1631.94 4773.57 1889.09 4722.76C2210.52 4659.24 1751.57 4258.69 1357.27 4358.34" stroke="white" stroke-opacity="0.1"/>
<path opacity="0.958333" d="M1205.73 5246.6C1313.67 5104.44 1594.68 4813.07 1855.28 4784.86C2181.02 4749.61 1758.73 4310.58 1357.25 4375.48" stroke="white" stroke-opacity="0.1"/>
<path d="M1128.64 5247.36C1248.55 5115.15 1553.89 4849.38 1815.96 4844C2143.53 4837.27 1761.11 4363.1 1355.5 4392.77" stroke="white" stroke-opacity="0.1"/>
</svg>
