<svg width="404" height="3915" viewBox="0 0 404 3915" fill="none" xmlns="http://www.w3.org/2000/svg">
<path d="M302.347 2.62937C302.695 1.58091 302.127 0.449196 301.078 0.101607C300.03 -0.245983 298.898 0.32218 298.55 1.37063L302.347 2.62937ZM300.449 1359L302.395 1358.54L302.381 1358.48L302.364 1358.42L300.449 1359ZM298 2724L296.286 2722.97L296.286 2722.97L298 2724ZM298.55 1.37063C227.123 216.822 127.186 789.887 298.534 1359.58L302.364 1358.42C131.311 789.713 231.108 217.512 302.347 2.62937L298.55 1.37063ZM298.502 1359.46C337.063 1522.86 382.729 1787.09 395.614 2048.87C402.057 2179.76 400.301 2309.99 385.381 2426.68C370.458 2543.39 342.382 2646.41 296.286 2722.97L299.713 2725.03C346.217 2647.79 374.393 2544.16 389.349 2427.19C404.308 2310.19 406.059 2179.71 399.609 2048.68C386.71 1786.61 341.001 1522.14 302.395 1358.54L298.502 1359.46ZM296.286 2722.97C265.694 2773.78 214.101 2848.08 154.289 2937.45C94.5073 3026.79 26.5794 3131.09 -36.5746 3241.76C-162.814 3462.98 -270.244 3710.09 -254.994 3914.15L-251.006 3913.85C-266.156 3711.11 -159.336 3464.95 -33.1005 3243.74C29.983 3133.19 97.8489 3028.98 157.614 2939.68C217.349 2850.42 269.055 2775.95 299.713 2725.03L296.286 2722.97Z" fill="white"/>
</svg>
