<svg width="300" height="65" viewBox="0 0 300 65" fill="none" xmlns="http://www.w3.org/2000/svg">
<path d="M53.6508 59.3254C53.6508 62.4598 51.1096 65 47.9762 65H5.6746C2.54119 65 0 62.4598 0 59.3254V5.6746C0 2.54016 2.54119 0 5.6746 0H47.9762C51.1096 0 53.6508 2.54016 53.6508 5.6746V59.3254ZM50.5556 5.6746C50.5556 4.24976 49.401 3.09524 47.9762 3.09524H5.6746C4.24976 3.09524 3.09524 4.24976 3.09524 5.6746V59.3254C3.09524 60.7502 4.24976 61.9048 5.6746 61.9048H47.9762C49.401 61.9048 50.5556 60.7502 50.5556 59.3254V5.6746Z" fill="white"/>
<path d="M51.6626 19.6032H1.10706C0.252778 19.6032 0 18.9109 0 18.0556V6.17087C0 2.99929 2.53087 0 5.67357 0H47.5831C50.8991 0 53.6508 3.25206 53.6508 6.17087V18.0556C53.6508 18.9109 52.5169 19.6032 51.6626 19.6032ZM3.09524 16.5079H50.5556V6.17087C50.5556 4.77802 48.9852 3.09524 47.5831 3.09524H5.67357C4.26317 3.09524 3.09524 4.73365 3.09524 6.17087V16.5079Z" fill="white"/>
<path d="M18.0556 19.0873C17.2013 19.0873 16.5079 18.395 16.5079 17.5397V2.06349C16.5079 1.20817 17.2013 0.515873 18.0556 0.515873C18.9098 0.515873 19.6032 1.20817 19.6032 2.06349V17.5397C19.6032 18.395 18.9098 19.0873 18.0556 19.0873Z" fill="white"/>
<path d="M46.6401 10.0482C46.6401 11.5225 45.4464 12.7173 43.972 12.7173C42.4976 12.7173 41.3039 11.5225 41.3039 10.0482C41.3039 8.57484 42.4976 7.38008 43.972 7.38008C45.4464 7.38008 46.6401 8.57484 46.6401 10.0482Z" fill="white"/>
<path d="M39.1692 10.0482C39.1692 11.5225 37.9755 12.7173 36.5011 12.7173C35.0267 12.7173 33.833 11.5225 33.833 10.0482C33.833 8.57484 35.0267 7.38008 36.5011 7.38008C37.9755 7.38008 39.1692 8.57484 39.1692 10.0482Z" fill="white"/>
<path d="M31.6983 10.0482C31.6983 11.5225 30.5025 12.7173 29.0302 12.7173C27.5559 12.7173 26.3621 11.5225 26.3621 10.0482C26.3621 8.57484 27.5559 7.38008 29.0302 7.38008C30.5025 7.38008 31.6983 8.57484 31.6983 10.0482Z" fill="white"/>
<path d="M26.0279 57.0906C17.8544 57.0906 11.2048 50.4421 11.2048 42.2686C11.2048 34.0951 17.8544 27.4465 26.0279 27.4465C34.2003 27.4465 40.851 34.0951 40.851 42.2686C40.851 50.4421 34.2003 57.0906 26.0279 57.0906ZM26.0279 30.5417C19.5609 30.5417 14.3 35.8016 14.3 42.2686C14.3 48.7345 19.5609 53.9954 26.0279 53.9954C32.4938 53.9954 37.7557 48.7345 37.7557 42.2686C37.7557 35.8016 32.4938 30.5417 26.0279 30.5417Z" fill="white"/>
<path d="M28.8308 41.6821C29.513 41.3261 29.9398 40.6993 29.8401 39.6549C29.7058 38.2277 28.5027 37.7492 26.9839 37.6129L26.9836 35.6333H25.8068L25.8065 37.5608C25.4969 37.5608 25.1813 37.5671 24.8671 37.5735L24.8668 35.6335L23.6911 35.6334L23.6909 37.6126C23.4361 37.6179 23.1858 37.623 22.9415 37.623V37.6171L21.3184 37.6164L21.3186 38.9032C21.3186 38.9032 22.1876 38.8864 22.1733 38.9027C22.6498 38.903 22.8053 39.1864 22.8501 39.431L22.8504 44.8541C22.8295 45.0076 22.7412 45.2529 22.408 45.2533C22.4232 45.267 21.552 45.2532 21.552 45.2532L21.3186 46.6921H22.8497C23.135 46.6924 23.4153 46.697 23.6904 46.6992L23.6914 48.7012L24.8668 48.7016L24.8665 46.7205C25.1899 46.7273 25.502 46.7302 25.8069 46.7298L25.8066 48.7016H26.9833L26.984 46.7029C28.962 46.5865 30.3468 46.0762 30.5189 44.1736C30.6577 42.6418 29.9538 41.9581 28.8308 41.6821ZM24.8952 38.99C25.5589 38.99 27.6462 38.7736 27.6464 40.1936C27.6462 41.5549 25.5595 41.3959 24.8952 41.3959V38.99ZM24.8947 45.2631L24.8952 42.6104C25.6926 42.6102 28.1937 42.3754 28.194 43.9362C28.1943 45.4329 25.6926 45.2625 24.8947 45.2631Z" fill="white"/>
<path d="M93.4135 44H87.6274V27.3154H82.3979V22.584H98.6283V27.3154H93.4135V44ZM121.729 33.2627C121.729 34.9131 121.529 36.417 121.128 37.7744C120.738 39.1221 120.122 40.2842 119.283 41.2607C118.443 42.2373 117.364 42.9893 116.045 43.5166C114.727 44.0342 113.15 44.293 111.314 44.293C109.517 44.293 107.959 44.0342 106.641 43.5166C105.332 42.9893 104.253 42.2422 103.404 41.2754C102.554 40.2988 101.924 39.1318 101.514 37.7744C101.104 36.417 100.899 34.9033 100.899 33.2334C100.899 31.0068 101.265 29.0732 101.997 27.4326C102.74 25.7822 103.882 24.5078 105.425 23.6094C106.968 22.7012 108.941 22.2471 111.343 22.2471C113.785 22.2471 115.767 22.7012 117.29 23.6094C118.824 24.5176 119.947 25.7969 120.66 27.4473C121.372 29.0977 121.729 31.0361 121.729 33.2627ZM106.993 33.2627C106.993 34.5518 107.139 35.6602 107.432 36.5879C107.725 37.5156 108.189 38.2285 108.824 38.7266C109.458 39.2246 110.288 39.4736 111.314 39.4736C112.378 39.4736 113.223 39.2246 113.848 38.7266C114.483 38.2285 114.937 37.5156 115.21 36.5879C115.494 35.6602 115.635 34.5518 115.635 33.2627C115.635 31.3291 115.313 29.8008 114.668 28.6777C114.024 27.5547 112.915 26.9932 111.343 26.9932C110.298 26.9932 109.454 27.2471 108.809 27.7549C108.174 28.2627 107.71 28.9854 107.417 29.9229C107.134 30.8604 106.993 31.9736 106.993 33.2627ZM133.008 22.584C135.723 22.584 137.754 23.1748 139.102 24.3564C140.459 25.5381 141.138 27.2178 141.138 29.3955C141.138 30.3721 140.996 31.3096 140.713 32.208C140.44 33.1064 139.986 33.9072 139.351 34.6104C138.726 35.3135 137.891 35.8701 136.846 36.2803C135.811 36.6904 134.532 36.8955 133.008 36.8955H131.382V44H125.596V22.584H133.008ZM132.876 27.2568H131.382V32.1787H132.525C133.023 32.1787 133.487 32.0957 133.916 31.9297C134.346 31.7539 134.688 31.4756 134.942 31.0947C135.205 30.7041 135.337 30.1865 135.337 29.542C135.337 28.8682 135.137 28.3213 134.737 27.9014C134.336 27.4717 133.716 27.2568 132.876 27.2568ZM152.344 44V22.584H158.13V39.3271H166.377V44H152.344ZM182.945 44L181.89 39.9863H174.932L173.848 44H167.491L174.478 22.4961H182.198L189.273 44H182.945ZM180.689 35.2402L179.766 31.7246C179.668 31.3438 179.527 30.8018 179.341 30.0986C179.156 29.3857 178.97 28.6533 178.785 27.9014C178.609 27.1396 178.472 26.5146 178.374 26.0264C178.287 26.5146 178.16 27.1201 177.994 27.8428C177.837 28.5557 177.671 29.2637 177.496 29.9668C177.33 30.6699 177.183 31.2559 177.056 31.7246L176.133 35.2402H180.689ZM209.81 22.584V35.4746C209.81 37.2715 209.468 38.834 208.785 40.1621C208.101 41.4805 207.076 42.501 205.708 43.2236C204.341 43.9365 202.627 44.293 200.567 44.293C197.618 44.293 195.367 43.5361 193.814 42.0225C192.261 40.5088 191.485 38.3701 191.485 35.6064V22.584H197.3V35.1523C197.3 36.666 197.583 37.7646 198.15 38.4482C198.716 39.1318 199.551 39.4736 200.655 39.4736C201.446 39.4736 202.09 39.3271 202.588 39.0342C203.086 38.7314 203.448 38.2578 203.672 37.6133C203.907 36.9688 204.024 36.1387 204.024 35.123V22.584H209.81ZM234.698 44H227.11L219.288 28.9121H219.156C219.205 29.3711 219.248 29.9229 219.288 30.5674C219.327 31.2119 219.361 31.8711 219.39 32.5449C219.419 33.209 219.434 33.8096 219.434 34.3467V44H214.307V22.584H221.866L229.659 37.4668H229.746C229.717 36.998 229.688 36.4561 229.659 35.8408C229.629 35.2158 229.6 34.5859 229.571 33.9512C229.551 33.3164 229.541 32.7549 229.541 32.2666V22.584H234.698V44ZM257.505 32.8379C257.505 35.3281 257.041 37.3984 256.114 39.0488C255.186 40.6992 253.877 41.9395 252.188 42.7695C250.508 43.5898 248.531 44 246.255 44H239.327V22.584H246.739C249.043 22.584 250.996 22.9795 252.598 23.7705C254.2 24.5615 255.415 25.7188 256.246 27.2422C257.085 28.7656 257.505 30.6309 257.505 32.8379ZM251.499 33.043C251.499 31.7441 251.324 30.6699 250.972 29.8203C250.63 28.9609 250.113 28.3213 249.419 27.9014C248.726 27.4717 247.852 27.2568 246.797 27.2568H245.113V39.2539H246.402C248.16 39.2539 249.449 38.7461 250.269 37.7305C251.089 36.7051 251.499 35.1426 251.499 33.043ZM268.374 22.584C270.318 22.584 271.934 22.8232 273.223 23.3018C274.512 23.7705 275.479 24.4736 276.123 25.4111C276.778 26.3486 277.105 27.5156 277.105 28.9121C277.105 29.7812 276.958 30.5723 276.665 31.2852C276.372 31.998 275.953 32.6377 275.406 33.2041C274.869 33.7607 274.224 34.249 273.472 34.6689L279.712 44H273.15L268.609 36.207H267.144V44H261.358V22.584H268.374ZM268.287 26.9639H267.144V31.8564H268.228C269.117 31.8564 269.844 31.6611 270.411 31.2705C270.977 30.8799 271.26 30.1816 271.26 29.1758C271.26 28.4824 271.026 27.9404 270.557 27.5498C270.088 27.1592 269.331 26.9639 268.287 26.9639ZM289.307 30.5234L292.998 22.584H299.268L292.222 35.6357V44H286.392V35.8115L279.346 22.584H285.645L289.307 30.5234Z" fill="white"/>
</svg>
