<svg width="273" height="258" viewBox="0 0 273 258" fill="none" xmlns="http://www.w3.org/2000/svg">
<g filter="url(#filter0_d_409_198)">
<circle cx="137" cy="125" r="125" fill="white"/>
</g>
<path d="M16.0661 124.258C15.5855 122.348 14.9675 119.687 14.2123 116.276L11.4316 105.019L8.342 92.1246L0 56.8187H20.4945L35.1188 127.226H16.787L16.0661 124.258ZM32.2351 92.0222L39.9592 56.8187H61.0716L77.9616 127.226H60.3507L57.3641 114.945L54.2745 101.949C52.97 96.6956 51.7341 91.5447 50.5669 86.4961H49.949L46.4474 101.949L45.3145 107.168C44.9712 108.601 44.628 109.965 44.2847 111.261C44.01 112.558 43.7354 113.786 43.4608 114.945L41.401 123.849L40.5771 127.226H39.4442L32.2351 92.0222ZM73.8421 91.4082L80.0214 56.8187H100.516L88.9813 105.019C87.6768 110.272 86.7842 114.024 86.3036 116.276L84.3468 124.258L83.6259 127.226H82.3901L73.8421 91.4082Z" fill="black"/>
<path d="M16.0661 124.258C15.5855 122.348 14.9675 119.687 14.2123 116.276L11.4316 105.019L8.342 92.1246L0 56.8187H20.4945L35.1188 127.226H16.787L16.0661 124.258ZM32.2351 92.0222L39.9592 56.8187H61.0716L77.9616 127.226H60.3507L57.3641 114.945L54.2745 101.949C52.97 96.6956 51.7341 91.5447 50.5669 86.4961H49.949L46.4474 101.949L45.3145 107.168C44.9712 108.601 44.628 109.965 44.2847 111.261C44.01 112.558 43.7354 113.786 43.4608 114.945L41.401 123.849L40.5771 127.226H39.4442L32.2351 92.0222ZM73.8421 91.4082L80.0214 56.8187H100.516L88.9813 105.019C87.6768 110.272 86.7842 114.024 86.3036 116.276L84.3468 124.258L83.6259 127.226H82.3901L73.8421 91.4082Z" fill="url(#paint0_radial_409_198)"/>
<path d="M146.585 92.0222C146.585 86.0868 146.551 82.198 146.482 80.3559C146.345 77.5588 145.967 75.5462 145.349 74.3181C144.731 73.0219 143.736 72.2373 142.363 71.9644C140.989 71.7597 139.033 71.6574 136.492 71.6574C133.54 71.6574 131.618 71.7938 130.725 72.0667V56.1023C131.343 56.0341 132.27 56 133.506 56H136.492C144.182 56 150.121 56.614 154.309 57.842C158.566 59.0019 161.656 60.9462 163.578 63.6752C165.363 66.1995 166.462 69.5083 166.874 73.6018C167.354 77.6952 167.595 83.8354 167.595 92.0222C167.595 99.1858 167.423 104.712 167.08 108.601C166.805 112.421 166.05 115.594 164.814 118.118C163.441 120.983 161.312 123.166 158.429 124.667C155.614 126.168 151.666 127.158 146.585 127.635V92.0222ZM136.492 128.044C126.468 128.044 119.259 126.953 114.865 124.77C112.599 123.678 110.814 122.211 109.51 120.369C108.205 118.527 107.244 116.242 106.626 113.513C106.077 111.125 105.733 108.396 105.596 105.326C105.459 102.188 105.39 97.7531 105.39 92.0222C105.39 84.8587 105.527 79.3667 105.802 75.5462C106.145 71.7256 106.935 68.5191 108.171 65.9266C109.544 63.1294 111.638 60.9803 114.453 59.4794C117.268 57.9785 121.25 56.9551 126.4 56.4093V92.0222C126.4 96.0475 126.468 99.9021 126.606 103.586C126.743 106.383 127.086 108.43 127.635 109.726C128.253 111.023 129.249 111.773 130.622 111.978C131.789 112.251 133.746 112.387 136.492 112.387C139.307 112.387 141.23 112.285 142.26 112.08V127.942C141.642 128.01 140.715 128.044 139.479 128.044H136.492Z" fill="black"/>
<path d="M146.585 92.0222C146.585 86.0868 146.551 82.198 146.482 80.3559C146.345 77.5588 145.967 75.5462 145.349 74.3181C144.731 73.0219 143.736 72.2373 142.363 71.9644C140.989 71.7597 139.033 71.6574 136.492 71.6574C133.54 71.6574 131.618 71.7938 130.725 72.0667V56.1023C131.343 56.0341 132.27 56 133.506 56H136.492C144.182 56 150.121 56.614 154.309 57.842C158.566 59.0019 161.656 60.9462 163.578 63.6752C165.363 66.1995 166.462 69.5083 166.874 73.6018C167.354 77.6952 167.595 83.8354 167.595 92.0222C167.595 99.1858 167.423 104.712 167.08 108.601C166.805 112.421 166.05 115.594 164.814 118.118C163.441 120.983 161.312 123.166 158.429 124.667C155.614 126.168 151.666 127.158 146.585 127.635V92.0222ZM136.492 128.044C126.468 128.044 119.259 126.953 114.865 124.77C112.599 123.678 110.814 122.211 109.51 120.369C108.205 118.527 107.244 116.242 106.626 113.513C106.077 111.125 105.733 108.396 105.596 105.326C105.459 102.188 105.39 97.7531 105.39 92.0222C105.39 84.8587 105.527 79.3667 105.802 75.5462C106.145 71.7256 106.935 68.5191 108.171 65.9266C109.544 63.1294 111.638 60.9803 114.453 59.4794C117.268 57.9785 121.25 56.9551 126.4 56.4093V92.0222C126.4 96.0475 126.468 99.9021 126.606 103.586C126.743 106.383 127.086 108.43 127.635 109.726C128.253 111.023 129.249 111.773 130.622 111.978C131.789 112.251 133.746 112.387 136.492 112.387C139.307 112.387 141.23 112.285 142.26 112.08V127.942C141.642 128.01 140.715 128.044 139.479 128.044H136.492Z" fill="url(#paint1_radial_409_198)"/>
<path d="M188.55 124.258C188.07 122.348 187.452 119.687 186.696 116.276L183.916 105.019L180.826 92.1246L172.484 56.8187H192.979L207.603 127.226H189.271L188.55 124.258ZM204.719 92.0222L212.443 56.8187H233.556L250.446 127.226H232.835L229.848 114.945L226.759 101.949C225.454 96.6956 224.218 91.5447 223.051 86.4961H222.433L218.932 101.949L217.799 107.168C217.455 108.601 217.112 109.965 216.769 111.261C216.494 112.558 216.219 113.786 215.945 114.945L213.885 123.849L213.061 127.226H211.928L204.719 92.0222ZM246.326 91.4082L252.505 56.8187H273L261.465 105.019C260.161 110.272 259.268 114.024 258.788 116.276L256.831 124.258L256.11 127.226H254.874L246.326 91.4082Z" fill="black"/>
<path d="M188.55 124.258C188.07 122.348 187.452 119.687 186.696 116.276L183.916 105.019L180.826 92.1246L172.484 56.8187H192.979L207.603 127.226H189.271L188.55 124.258ZM204.719 92.0222L212.443 56.8187H233.556L250.446 127.226H232.835L229.848 114.945L226.759 101.949C225.454 96.6956 224.218 91.5447 223.051 86.4961H222.433L218.932 101.949L217.799 107.168C217.455 108.601 217.112 109.965 216.769 111.261C216.494 112.558 216.219 113.786 215.945 114.945L213.885 123.849L213.061 127.226H211.928L204.719 92.0222ZM246.326 91.4082L252.505 56.8187H273L261.465 105.019C260.161 110.272 259.268 114.024 258.788 116.276L256.831 124.258L256.11 127.226H254.874L246.326 91.4082Z" fill="url(#paint2_radial_409_198)"/>
<path d="M17.4221 137.033V134.645H34.5867L67.7143 190.845V193.318H50.6356L17.4221 137.033ZM51.408 156.05V134.645H67.7143V183.766L51.408 156.05ZM17.4221 144.111L33.7284 171.827V193.318H17.4221V144.111Z" fill="black"/>
<path d="M17.4221 137.033V134.645H34.5867L67.7143 190.845V193.318H50.6356L17.4221 137.033ZM51.408 156.05V134.645H67.7143V183.766L51.408 156.05ZM17.4221 144.111L33.7284 171.827V193.318H17.4221V144.111Z" fill="url(#paint3_radial_409_198)"/>
<path d="M78.8559 134.645H96.0205V193.318H78.8559V134.645ZM99.6251 134.645H121.424V147.693H99.6251V134.645ZM99.6251 157.159H117.39V170.207H99.6251V157.159ZM99.6251 180.27H121.424V193.318H99.6251V180.27Z" fill="black"/>
<path d="M78.8559 134.645H96.0205V193.318H78.8559V134.645ZM99.6251 134.645H121.424V147.693H99.6251V134.645ZM99.6251 157.159H117.39V170.207H99.6251V157.159ZM99.6251 180.27H121.424V193.318H99.6251V180.27Z" fill="url(#paint4_radial_409_198)"/>
<path d="M140.409 190.845C140.009 189.253 139.494 187.035 138.864 184.193L136.547 174.812L133.972 164.067L127.021 134.645H144.099L156.286 193.318H141.01L140.409 190.845ZM153.883 163.981L160.32 134.645H177.914L191.989 193.318H177.313L174.824 183.084L172.249 172.254C171.162 167.876 170.132 163.583 169.16 159.376H168.645L165.727 172.254L164.783 176.603C164.497 177.797 164.211 178.934 163.925 180.014C163.696 181.094 163.467 182.118 163.238 183.084L161.522 190.504L160.835 193.318H159.891L153.883 163.981ZM188.556 163.47L193.705 134.645H210.784L201.172 174.812C200.085 179.19 199.341 182.317 198.94 184.193L197.31 190.845L196.709 193.318H195.679L188.556 163.47Z" fill="black"/>
<path d="M140.409 190.845C140.009 189.253 139.494 187.035 138.864 184.193L136.547 174.812L133.972 164.067L127.021 134.645H144.099L156.286 193.318H141.01L140.409 190.845ZM153.883 163.981L160.32 134.645H177.914L191.989 193.318H177.313L174.824 183.084L172.249 172.254C171.162 167.876 170.132 163.583 169.16 159.376H168.645L165.727 172.254L164.783 176.603C164.497 177.797 164.211 178.934 163.925 180.014C163.696 181.094 163.467 182.118 163.238 183.084L161.522 190.504L160.835 193.318H159.891L153.883 163.981ZM188.556 163.47L193.705 134.645H210.784L201.172 174.812C200.085 179.19 199.341 182.317 198.94 184.193L197.31 190.845L196.709 193.318H195.679L188.556 163.47Z" fill="url(#paint5_radial_409_198)"/>
<path d="M257.909 148.119C256.021 147.892 252.702 147.579 247.953 147.181C245.321 147.068 243.204 147.011 241.602 147.011C239.543 147.011 237.597 147.068 235.766 147.181V133.963H237.912C242.604 133.963 247.467 134.276 252.502 134.901C254.104 135.128 255.906 135.441 257.909 135.839V148.119ZM243.748 176.006C243.748 174.812 243.662 173.959 243.491 173.448C243.319 172.879 243.033 172.509 242.632 172.339C242.232 172.111 241.545 171.941 240.573 171.827L230.016 170.548C223.78 169.866 219.575 167.847 217.4 164.493C216.428 163.072 215.77 161.338 215.426 159.291C215.083 157.244 214.911 154.743 214.911 151.786C214.911 145.476 216.542 140.927 219.803 138.142C222.435 135.868 226.555 134.531 232.162 134.133V151.275C232.162 152.014 232.191 152.639 232.248 153.151C232.305 153.663 232.419 154.061 232.591 154.345C232.763 154.686 233.049 154.942 233.449 155.112C233.85 155.226 234.451 155.311 235.252 155.368L247.095 156.818C249.555 157.159 251.558 157.585 253.103 158.097C254.648 158.609 255.964 159.405 257.051 160.485C259.625 163.157 260.913 167.904 260.913 174.727C260.913 181.947 259.311 187.007 256.107 189.907C254.676 191.214 252.931 192.181 250.871 192.806C248.869 193.375 246.494 193.744 243.748 193.915V176.006ZM239.199 194C233.478 194 228.157 193.744 223.236 193.232C220.318 192.948 218.116 192.664 216.628 192.38V179.929C220.004 180.213 223.866 180.497 228.214 180.782C230.96 180.895 232.906 180.952 234.05 180.952C237.14 180.952 239.171 180.867 240.143 180.696V194H239.199Z" fill="black"/>
<path d="M257.909 148.119C256.021 147.892 252.702 147.579 247.953 147.181C245.321 147.068 243.204 147.011 241.602 147.011C239.543 147.011 237.597 147.068 235.766 147.181V133.963H237.912C242.604 133.963 247.467 134.276 252.502 134.901C254.104 135.128 255.906 135.441 257.909 135.839V148.119ZM243.748 176.006C243.748 174.812 243.662 173.959 243.491 173.448C243.319 172.879 243.033 172.509 242.632 172.339C242.232 172.111 241.545 171.941 240.573 171.827L230.016 170.548C223.78 169.866 219.575 167.847 217.4 164.493C216.428 163.072 215.77 161.338 215.426 159.291C215.083 157.244 214.911 154.743 214.911 151.786C214.911 145.476 216.542 140.927 219.803 138.142C222.435 135.868 226.555 134.531 232.162 134.133V151.275C232.162 152.014 232.191 152.639 232.248 153.151C232.305 153.663 232.419 154.061 232.591 154.345C232.763 154.686 233.049 154.942 233.449 155.112C233.85 155.226 234.451 155.311 235.252 155.368L247.095 156.818C249.555 157.159 251.558 157.585 253.103 158.097C254.648 158.609 255.964 159.405 257.051 160.485C259.625 163.157 260.913 167.904 260.913 174.727C260.913 181.947 259.311 187.007 256.107 189.907C254.676 191.214 252.931 192.181 250.871 192.806C248.869 193.375 246.494 193.744 243.748 193.915V176.006ZM239.199 194C233.478 194 228.157 193.744 223.236 193.232C220.318 192.948 218.116 192.664 216.628 192.38V179.929C220.004 180.213 223.866 180.497 228.214 180.782C230.96 180.895 232.906 180.952 234.05 180.952C237.14 180.952 239.171 180.867 240.143 180.696V194H239.199Z" fill="url(#paint6_radial_409_198)"/>
<defs>
<filter id="filter0_d_409_198" x="8" y="0" width="258" height="258" filterUnits="userSpaceOnUse" color-interpolation-filters="sRGB">
<feFlood flood-opacity="0" result="BackgroundImageFix"/>
<feColorMatrix in="SourceAlpha" type="matrix" values="0 0 0 0 0 0 0 0 0 0 0 0 0 0 0 0 0 0 127 0" result="hardAlpha"/>
<feOffset dy="4"/>
<feGaussianBlur stdDeviation="2"/>
<feComposite in2="hardAlpha" operator="out"/>
<feColorMatrix type="matrix" values="0 0 0 0 0 0 0 0 0 0 0 0 0 0 0 0 0 0 0.25 0"/>
<feBlend mode="normal" in2="BackgroundImageFix" result="effect1_dropShadow_409_198"/>
<feBlend mode="normal" in="SourceGraphic" in2="effect1_dropShadow_409_198" result="shape"/>
</filter>
<radialGradient id="paint0_radial_409_198" cx="0" cy="0" r="1" gradientUnits="userSpaceOnUse" gradientTransform="translate(136.5 125) rotate(90) scale(69 136.5)">
<stop stop-color="#007155"/>
<stop offset="1" stop-color="#1DA7F4" stop-opacity="0"/>
</radialGradient>
<radialGradient id="paint1_radial_409_198" cx="0" cy="0" r="1" gradientUnits="userSpaceOnUse" gradientTransform="translate(136.5 125) rotate(90) scale(69 136.5)">
<stop stop-color="#007155"/>
<stop offset="1" stop-color="#1DA7F4" stop-opacity="0"/>
</radialGradient>
<radialGradient id="paint2_radial_409_198" cx="0" cy="0" r="1" gradientUnits="userSpaceOnUse" gradientTransform="translate(136.5 125) rotate(90) scale(69 136.5)">
<stop stop-color="#007155"/>
<stop offset="1" stop-color="#1DA7F4" stop-opacity="0"/>
</radialGradient>
<radialGradient id="paint3_radial_409_198" cx="0" cy="0" r="1" gradientUnits="userSpaceOnUse" gradientTransform="translate(136.5 125) rotate(90) scale(69 136.5)">
<stop stop-color="#007155"/>
<stop offset="1" stop-color="#1DA7F4" stop-opacity="0"/>
</radialGradient>
<radialGradient id="paint4_radial_409_198" cx="0" cy="0" r="1" gradientUnits="userSpaceOnUse" gradientTransform="translate(136.5 125) rotate(90) scale(69 136.5)">
<stop stop-color="#007155"/>
<stop offset="1" stop-color="#1DA7F4" stop-opacity="0"/>
</radialGradient>
<radialGradient id="paint5_radial_409_198" cx="0" cy="0" r="1" gradientUnits="userSpaceOnUse" gradientTransform="translate(136.5 125) rotate(90) scale(69 136.5)">
<stop stop-color="#007155"/>
<stop offset="1" stop-color="#1DA7F4" stop-opacity="0"/>
</radialGradient>
<radialGradient id="paint6_radial_409_198" cx="0" cy="0" r="1" gradientUnits="userSpaceOnUse" gradientTransform="translate(136.5 125) rotate(90) scale(69 136.5)">
<stop stop-color="#007155"/>
<stop offset="1" stop-color="#1DA7F4" stop-opacity="0"/>
</radialGradient>
</defs>
</svg>
