<svg width="221" height="266" viewBox="0 0 221 266" fill="none" xmlns="http://www.w3.org/2000/svg">
<path d="M220.511 242.778C220.511 255.605 210.112 266 197.289 266H24.1778C11.3549 266 0.955566 255.605 0.955566 242.778V23.2222C0.955566 10.3951 11.3549 0 24.1778 0H197.289C210.112 0 220.511 10.3951 220.511 23.2222V242.778ZM207.844 23.2222C207.844 17.3913 203.12 12.6667 197.289 12.6667H24.1778C18.3469 12.6667 13.6222 17.3913 13.6222 23.2222V242.778C13.6222 248.609 18.3469 253.333 24.1778 253.333H197.289C203.12 253.333 207.844 248.609 207.844 242.778V23.2222Z" fill="white"/>
<path d="M212.375 80.2222H5.48601C1.99001 80.2222 0.955566 77.3891 0.955566 73.8889V25.2531C0.955566 12.274 11.3127 0 24.1736 0H195.68C209.25 0 220.511 13.3084 220.511 25.2531V73.8889C220.511 77.3891 215.871 80.2222 212.375 80.2222ZM13.6222 67.5556H207.844V25.2531C207.844 19.5531 201.418 12.6667 195.68 12.6667H24.1736C18.4018 12.6667 13.6222 19.3716 13.6222 25.2531V67.5556Z" fill="white"/>
<path d="M74.8445 78.1111C71.3484 78.1111 68.5111 75.278 68.5111 71.7778V8.44444C68.5111 4.94422 71.3484 2.11111 74.8445 2.11111C78.3405 2.11111 81.1778 4.94422 81.1778 8.44444V71.7778C81.1778 75.278 78.3405 78.1111 74.8445 78.1111Z" fill="white"/>
<path d="M191.821 41.1202C191.821 47.1538 186.936 52.0431 180.902 52.0431C174.869 52.0431 169.984 47.1538 169.984 41.1202C169.984 35.0909 174.869 30.2016 180.902 30.2016C186.936 30.2016 191.821 35.0909 191.821 41.1202Z" fill="white"/>
<path d="M161.248 41.1202C161.248 47.1538 156.363 52.0431 150.329 52.0431C144.296 52.0431 139.411 47.1538 139.411 41.1202C139.411 35.0909 144.296 30.2016 150.329 30.2016C156.363 30.2016 161.248 35.0909 161.248 41.1202Z" fill="white"/>
<path d="M130.675 41.1202C130.675 47.1538 125.781 52.0431 119.756 52.0431C113.723 52.0431 108.838 47.1538 108.838 41.1202C108.838 35.0909 113.723 30.2016 119.756 30.2016C125.781 30.2016 130.675 35.0909 130.675 41.1202Z" fill="white"/>
<path d="M107.47 233.632C74.0211 233.632 46.8089 206.424 46.8089 172.976C46.8089 139.528 74.0211 112.32 107.47 112.32C140.914 112.32 168.13 139.528 168.13 172.976C168.13 206.424 140.914 233.632 107.47 233.632ZM107.47 124.986C81.0047 124.986 59.4756 146.511 59.4756 172.976C59.4756 199.437 81.0047 220.966 107.47 220.966C133.93 220.966 155.464 199.437 155.464 172.976C155.464 146.511 133.93 124.986 107.47 124.986Z" fill="white"/>
<path d="M118.94 170.576C121.732 169.119 123.478 166.554 123.07 162.28C122.521 156.44 117.597 154.481 111.382 153.924L111.381 145.822H106.565L106.564 153.71C105.297 153.71 104.005 153.736 102.719 153.762L102.718 145.823L97.9068 145.823L97.9059 153.922C96.8632 153.944 95.8391 153.965 94.8393 153.965V153.941L88.1968 153.938L88.1977 159.204C88.1977 159.204 91.754 159.135 91.6954 159.202C93.6453 159.203 94.282 160.363 94.4651 161.364L94.4666 183.557C94.3808 184.185 94.0195 185.189 92.6561 185.191C92.7181 185.246 89.153 185.19 89.153 185.19L88.1977 191.078H94.4636C95.6312 191.08 96.7784 191.098 97.9038 191.108L97.908 199.3L102.718 199.302L102.717 191.195C104.04 191.222 105.318 191.234 106.565 191.233L106.564 199.302H111.38L111.382 191.123C119.477 190.646 125.144 188.558 125.849 180.772C126.416 174.504 123.536 171.706 118.94 170.576ZM102.834 159.559C105.55 159.559 114.092 158.673 114.093 164.484C114.092 170.055 105.553 169.405 102.834 169.405V159.559ZM102.832 185.231L102.834 174.375C106.098 174.374 116.333 173.413 116.334 179.8C116.335 185.925 106.098 185.228 102.832 185.231Z" fill="white"/>
</svg>
