<svg width="672" height="397" viewBox="0 0 672 397" fill="none" xmlns="http://www.w3.org/2000/svg">
<path d="M10.1475 230H2.00147V215.369H10.1475V216.87H3.70272V221.604H9.77718V223.085H3.70272V228.499H10.1475V230ZM22.1963 219.032V230H20.8353L20.5951 228.459H20.5051C20.2782 228.839 19.9847 229.159 19.6244 229.42C19.2641 229.68 18.8572 229.873 18.4035 230C17.9565 230.133 17.4795 230.2 16.9725 230.2C16.1052 230.2 15.378 230.06 14.7909 229.78C14.2038 229.5 13.7601 229.066 13.4599 228.479C13.1663 227.892 13.0196 227.138 13.0196 226.217V219.032H14.7008V226.097C14.7008 227.011 14.9076 227.695 15.3212 228.149C15.7349 228.596 16.3653 228.819 17.2126 228.819C18.0266 228.819 18.6737 228.666 19.1541 228.359C19.6411 228.052 19.9913 227.602 20.2048 227.008C20.4183 226.407 20.5251 225.673 20.5251 224.806V219.032H22.1963ZM30.6925 218.832C30.9127 218.832 31.1429 218.845 31.383 218.872C31.6232 218.892 31.8367 218.922 32.0235 218.962L31.8134 220.503C31.6332 220.456 31.4331 220.42 31.2129 220.393C30.9928 220.366 30.7859 220.353 30.5925 220.353C30.1521 220.353 29.7352 220.443 29.3415 220.623C28.9546 220.797 28.6143 221.05 28.3208 221.384C28.0272 221.711 27.7971 222.108 27.6303 222.575C27.4635 223.035 27.3801 223.549 27.3801 224.116V230H25.7089V219.032H27.0899L27.27 221.053H27.3401C27.5669 220.646 27.8404 220.276 28.1607 219.943C28.4809 219.602 28.8512 219.332 29.2715 219.132C29.6985 218.932 30.1722 218.832 30.6925 218.832ZM43.552 224.496C43.552 225.397 43.4352 226.201 43.2017 226.908C42.9682 227.615 42.6313 228.212 42.191 228.699C41.7507 229.186 41.2169 229.56 40.5898 229.82C39.9693 230.073 39.2655 230.2 38.4783 230.2C37.7444 230.2 37.0706 230.073 36.4568 229.82C35.8497 229.56 35.3226 229.186 34.8756 228.699C34.4353 228.212 34.0917 227.615 33.8449 226.908C33.6047 226.201 33.4846 225.397 33.4846 224.496C33.4846 223.295 33.6881 222.274 34.095 221.434C34.502 220.586 35.0824 219.943 35.8363 219.502C36.5969 219.055 37.5009 218.832 38.5483 218.832C39.549 218.832 40.423 219.055 41.1702 219.502C41.9241 219.949 42.5079 220.596 42.9215 221.444C43.3418 222.284 43.552 223.302 43.552 224.496ZM35.2059 224.496C35.2059 225.377 35.3226 226.14 35.5561 226.788C35.7896 227.435 36.1499 227.935 36.6369 228.289C37.1239 228.642 37.7511 228.819 38.5183 228.819C39.2788 228.819 39.9026 228.642 40.3897 228.289C40.8834 227.935 41.247 227.435 41.4805 226.788C41.714 226.14 41.8307 225.377 41.8307 224.496C41.8307 223.622 41.714 222.868 41.4805 222.234C41.247 221.594 40.8867 221.1 40.3997 220.753C39.9126 220.406 39.2822 220.233 38.5083 220.233C37.3674 220.233 36.5302 220.61 35.9964 221.364C35.4694 222.118 35.2059 223.162 35.2059 224.496ZM51.5779 218.832C52.9455 218.832 54.0363 219.302 54.8503 220.243C55.6642 221.184 56.0712 222.598 56.0712 224.486C56.0712 225.734 55.8844 226.781 55.5108 227.628C55.1372 228.476 54.6101 229.116 53.9296 229.55C53.2558 229.983 52.4585 230.2 51.5378 230.2C50.9574 230.2 50.447 230.123 50.0067 229.97C49.5664 229.817 49.1895 229.61 48.8759 229.35C48.5623 229.089 48.3021 228.806 48.0953 228.499H47.9752C47.9952 228.759 48.0186 229.073 48.0453 229.44C48.0786 229.807 48.0953 230.127 48.0953 230.4V234.904H46.4241V219.032H47.7951L48.0153 220.653H48.0953C48.3088 220.32 48.569 220.016 48.8759 219.742C49.1828 219.462 49.5564 219.242 49.9967 219.082C50.4437 218.915 50.9708 218.832 51.5779 218.832ZM51.2877 220.233C50.5271 220.233 49.9133 220.38 49.4463 220.673C48.986 220.967 48.6491 221.407 48.4356 221.994C48.2221 222.575 48.1087 223.305 48.0953 224.186V224.506C48.0953 225.433 48.1954 226.217 48.3955 226.858C48.6024 227.498 48.9393 227.985 49.4063 228.319C49.88 228.652 50.5138 228.819 51.3077 228.819C51.9882 228.819 52.5553 228.636 53.0089 228.269C53.4626 227.902 53.7995 227.391 54.0197 226.738C54.2465 226.077 54.3599 225.32 54.3599 224.466C54.3599 223.172 54.1064 222.144 53.5994 221.384C53.099 220.616 52.3284 220.233 51.2877 220.233ZM63.1964 218.832C64.1304 218.832 64.931 219.039 65.5982 219.452C66.2653 219.866 66.7757 220.446 67.1293 221.194C67.4829 221.934 67.6597 222.801 67.6597 223.795V224.826H60.0841C60.1041 226.114 60.4244 227.095 61.0448 227.768C61.6653 228.442 62.5393 228.779 63.6667 228.779C64.3606 228.779 64.9744 228.716 65.5081 228.589C66.0418 228.462 66.5956 228.275 67.1693 228.029V229.49C66.6156 229.736 66.0652 229.917 65.5181 230.03C64.9777 230.143 64.3372 230.2 63.5967 230.2C62.5426 230.2 61.6219 229.987 60.8347 229.56C60.0541 229.126 59.447 228.492 59.0133 227.658C58.5797 226.824 58.3629 225.804 58.3629 224.596C58.3629 223.415 58.5597 222.394 58.9533 221.534C59.3536 220.666 59.914 219.999 60.6345 219.532C61.3617 219.065 62.2157 218.832 63.1964 218.832ZM63.1764 220.193C62.2891 220.193 61.5819 220.483 61.0548 221.063C60.5278 221.644 60.2142 222.454 60.1141 223.495H65.9184C65.9117 222.841 65.8083 222.268 65.6082 221.774C65.4147 221.274 65.1178 220.887 64.7175 220.613C64.3172 220.333 63.8035 220.193 63.1764 220.193Z" fill="white"/>
<path d="M295.44 22H293.478L285.503 9.71098H285.423C285.443 10.0379 285.466 10.4115 285.493 10.8318C285.519 11.2454 285.539 11.6891 285.553 12.1628C285.573 12.6298 285.583 13.1068 285.583 13.5938V22H284.001V7.36926H285.953L293.899 19.6183H293.969C293.955 19.3847 293.939 19.0545 293.919 18.6275C293.899 18.1939 293.879 17.7302 293.859 17.2365C293.845 16.7361 293.839 16.2725 293.839 15.8455V7.36926H295.44V22ZM308.64 16.496C308.64 17.3966 308.523 18.2005 308.289 18.9077C308.056 19.6149 307.719 20.212 307.279 20.699C306.838 21.1861 306.305 21.5597 305.677 21.8199C305.057 22.0734 304.353 22.2001 303.566 22.2001C302.832 22.2001 302.158 22.0734 301.544 21.8199C300.937 21.5597 300.41 21.1861 299.963 20.699C299.523 20.212 299.179 19.6149 298.932 18.9077C298.692 18.2005 298.572 17.3966 298.572 16.496C298.572 15.2951 298.776 14.2743 299.183 13.4337C299.59 12.5864 300.17 11.9426 300.924 11.5023C301.684 11.0553 302.588 10.8318 303.636 10.8318C304.637 10.8318 305.511 11.0553 306.258 11.5023C307.012 11.9493 307.595 12.5964 308.009 13.4437C308.429 14.2843 308.64 15.3017 308.64 16.496ZM300.293 16.496C300.293 17.3766 300.41 18.1405 300.644 18.7876C300.877 19.4348 301.237 19.9352 301.724 20.2887C302.212 20.6423 302.839 20.8191 303.606 20.8191C304.366 20.8191 304.99 20.6423 305.477 20.2887C305.971 19.9352 306.335 19.4348 306.568 18.7876C306.802 18.1405 306.918 17.3766 306.918 16.496C306.918 15.622 306.802 14.8681 306.568 14.2343C306.335 13.5938 305.974 13.1001 305.487 12.7532C305 12.4063 304.37 12.2328 303.596 12.2328C302.455 12.2328 301.618 12.6098 301.084 13.3637C300.557 14.1175 300.293 15.1616 300.293 16.496ZM316.495 10.8318C316.715 10.8318 316.946 10.8451 317.186 10.8718C317.426 10.8918 317.64 10.9219 317.826 10.9619L317.616 12.503C317.436 12.4563 317.236 12.4196 317.016 12.3929C316.796 12.3663 316.589 12.3529 316.395 12.3529C315.955 12.3529 315.538 12.443 315.144 12.6231C314.757 12.7966 314.417 13.0501 314.124 13.3837C313.83 13.7106 313.6 14.1075 313.433 14.5745C313.266 15.0349 313.183 15.5486 313.183 16.1157V22H311.512V11.0319H312.893L313.073 13.0534H313.143C313.37 12.6465 313.643 12.2762 313.963 11.9426C314.284 11.6024 314.654 11.3322 315.074 11.132C315.501 10.9319 315.975 10.8318 316.495 10.8318ZM323.44 20.8391C323.714 20.8391 323.994 20.8158 324.281 20.7691C324.568 20.7224 324.801 20.6657 324.982 20.599V21.8899C324.788 21.9766 324.518 22.05 324.171 22.1101C323.831 22.1701 323.497 22.2001 323.17 22.2001C322.59 22.2001 322.063 22.1001 321.589 21.8999C321.115 21.6931 320.735 21.3462 320.448 20.8592C320.168 20.3721 320.028 19.6983 320.028 18.8377V12.3329H318.467V11.5223L320.038 10.8718L320.698 8.49008H321.699V11.0319H324.912V12.3329H321.699V18.7876C321.699 19.4748 321.856 19.9885 322.169 20.3288C322.49 20.669 322.913 20.8391 323.44 20.8391ZM328.864 6.42857V11.082C328.864 11.3488 328.858 11.619 328.844 11.8926C328.831 12.1594 328.808 12.4063 328.774 12.6331H328.884C329.111 12.2462 329.398 11.9226 329.745 11.6624C330.099 11.3955 330.499 11.1954 330.946 11.062C331.393 10.9219 331.867 10.8518 332.367 10.8518C333.248 10.8518 333.982 10.9919 334.569 11.2721C335.162 11.5523 335.606 11.986 335.9 12.5731C336.2 13.1602 336.35 13.9207 336.35 14.8548V22H334.709V14.9648C334.709 14.0508 334.499 13.367 334.078 12.9133C333.665 12.4597 333.027 12.2328 332.167 12.2328C331.353 12.2328 330.702 12.3896 330.215 12.7032C329.735 13.0101 329.388 13.4637 329.175 14.0642C328.968 14.6646 328.864 15.3985 328.864 16.2658V22H327.203V6.42857H328.864ZM354.523 22L352.722 17.3566H346.858L345.066 22H343.345L349.069 7.30921H350.6L356.285 22H354.523ZM352.212 15.8455L350.5 11.2321C350.46 11.112 350.394 10.9152 350.3 10.6417C350.213 10.3681 350.123 10.0846 350.03 9.79104C349.937 9.49749 349.86 9.26065 349.8 9.08051C349.733 9.35405 349.66 9.62758 349.58 9.90112C349.506 10.168 349.433 10.4182 349.359 10.6517C349.286 10.8785 349.223 11.072 349.169 11.2321L347.428 15.8455H352.212ZM369.975 10.8318C371.182 10.8318 372.093 11.1487 372.707 11.7825C373.32 12.4096 373.627 13.4204 373.627 14.8147V22H371.986V14.8948C371.986 14.0075 371.793 13.3436 371.406 12.9033C371.025 12.4563 370.458 12.2328 369.704 12.2328C368.644 12.2328 367.873 12.5397 367.393 13.1535C366.912 13.7673 366.672 14.6713 366.672 15.8655V22H365.021V14.8948C365.021 14.301 364.934 13.8073 364.761 13.4137C364.594 13.0201 364.34 12.7265 364 12.533C363.667 12.3329 363.243 12.2328 362.729 12.2328C362.002 12.2328 361.418 12.3829 360.978 12.6832C360.538 12.9834 360.217 13.4304 360.017 14.0241C359.824 14.6112 359.727 15.3351 359.727 16.1957V22H358.066V11.0319H359.407L359.657 12.5831H359.747C359.967 12.2028 360.244 11.8826 360.578 11.6224C360.911 11.3622 361.285 11.1654 361.699 11.0319C362.112 10.8985 362.552 10.8318 363.019 10.8318C363.853 10.8318 364.551 10.9886 365.111 11.3021C365.678 11.609 366.088 12.0794 366.342 12.7132H366.432C366.792 12.0794 367.286 11.609 367.913 11.3021C368.54 10.9886 369.227 10.8318 369.975 10.8318ZM381.263 10.8318C382.197 10.8318 382.997 11.0386 383.665 11.4523C384.332 11.8659 384.842 12.4463 385.196 13.1935C385.549 13.9341 385.726 14.8014 385.726 15.7954V16.8262H378.151C378.171 18.1138 378.491 19.0945 379.111 19.7684C379.732 20.4422 380.606 20.7791 381.733 20.7791C382.427 20.7791 383.041 20.7157 383.575 20.589C384.108 20.4622 384.662 20.2754 385.236 20.0286V21.4896C384.682 21.7365 384.132 21.9166 383.585 22.03C383.044 22.1434 382.404 22.2001 381.663 22.2001C380.609 22.2001 379.688 21.9867 378.901 21.5597C378.121 21.126 377.513 20.4922 377.08 19.6583C376.646 18.8243 376.429 17.8036 376.429 16.596C376.429 15.4152 376.626 14.3944 377.02 13.5338C377.42 12.6665 377.98 11.9993 378.701 11.5323C379.428 11.0653 380.282 10.8318 381.263 10.8318ZM381.243 12.1928C380.356 12.1928 379.648 12.483 379.121 13.0634C378.594 13.6439 378.281 14.4545 378.181 15.4952H383.985C383.978 14.8414 383.875 14.2677 383.675 13.774C383.481 13.2736 383.184 12.8866 382.784 12.6131C382.384 12.3329 381.87 12.1928 381.243 12.1928ZM393.532 10.8318C393.752 10.8318 393.982 10.8451 394.222 10.8718C394.463 10.8918 394.676 10.9219 394.863 10.9619L394.653 12.503C394.473 12.4563 394.272 12.4196 394.052 12.3929C393.832 12.3663 393.625 12.3529 393.432 12.3529C392.991 12.3529 392.575 12.443 392.181 12.6231C391.794 12.7966 391.454 13.0501 391.16 13.3837C390.867 13.7106 390.636 14.1075 390.47 14.5745C390.303 15.0349 390.219 15.5486 390.219 16.1157V22H388.548V11.0319H389.929L390.109 13.0534H390.179C390.406 12.6465 390.68 12.2762 391 11.9426C391.32 11.6024 391.691 11.3322 392.111 11.132C392.538 10.9319 393.012 10.8318 393.532 10.8318ZM398.596 11.0319V22H396.934V11.0319H398.596ZM397.785 6.92893C398.059 6.92893 398.292 7.019 398.486 7.19913C398.686 7.37259 398.786 7.64613 398.786 8.01973C398.786 8.38667 398.686 8.66021 398.486 8.84034C398.292 9.02047 398.059 9.11054 397.785 9.11054C397.498 9.11054 397.258 9.02047 397.064 8.84034C396.878 8.66021 396.784 8.38667 396.784 8.01973C396.784 7.64613 396.878 7.37259 397.064 7.19913C397.258 7.019 397.498 6.92893 397.785 6.92893ZM406.511 22.2001C405.524 22.2001 404.653 21.9967 403.9 21.5897C403.146 21.1827 402.559 20.5623 402.138 19.7283C401.718 18.8944 401.508 17.8436 401.508 16.576C401.508 15.2484 401.728 14.1642 402.168 13.3236C402.615 12.4763 403.229 11.8492 404.01 11.4422C404.79 11.0353 405.677 10.8318 406.672 10.8318C407.219 10.8318 407.746 10.8885 408.253 11.0019C408.766 11.1087 409.187 11.2454 409.514 11.4122L409.013 12.8032C408.68 12.6698 408.293 12.5497 407.852 12.443C407.419 12.3362 407.012 12.2829 406.632 12.2829C405.871 12.2829 405.237 12.4463 404.73 12.7732C404.23 13.1001 403.853 13.5805 403.599 14.2143C403.352 14.8481 403.229 15.6287 403.229 16.556C403.229 17.4433 403.349 18.2005 403.589 18.8277C403.836 19.4548 404.2 19.9352 404.68 20.2687C405.167 20.5956 405.774 20.7591 406.501 20.7591C407.082 20.7591 407.606 20.699 408.073 20.579C408.54 20.4522 408.963 20.3054 409.344 20.1386V21.6197C408.977 21.8065 408.566 21.95 408.113 22.05C407.666 22.1501 407.132 22.2001 406.511 22.2001ZM416.048 10.8518C417.356 10.8518 418.327 11.1454 418.961 11.7325C419.594 12.3196 419.911 13.2569 419.911 14.5445V22H418.7L418.38 20.3788H418.3C417.993 20.7791 417.673 21.116 417.339 21.3896C417.006 21.6564 416.619 21.8599 416.179 22C415.745 22.1334 415.211 22.2001 414.577 22.2001C413.91 22.2001 413.316 22.0834 412.796 21.8499C412.282 21.6164 411.875 21.2628 411.575 20.7891C411.282 20.3154 411.135 19.715 411.135 18.9878C411.135 17.8937 411.568 17.053 412.436 16.4659C413.303 15.8788 414.624 15.5586 416.399 15.5052L418.29 15.4252V14.7547C418.29 13.8073 418.087 13.1435 417.68 12.7632C417.273 12.3829 416.699 12.1928 415.958 12.1928C415.385 12.1928 414.838 12.2762 414.317 12.443C413.797 12.6098 413.303 12.8066 412.836 13.0334L412.326 11.7725C412.819 11.519 413.386 11.3021 414.027 11.122C414.667 10.9419 415.341 10.8518 416.048 10.8518ZM418.27 16.596L416.599 16.6661C415.231 16.7195 414.267 16.943 413.707 17.3366C413.146 17.7302 412.866 18.2873 412.866 19.0078C412.866 19.6349 413.056 20.0986 413.437 20.3988C413.817 20.699 414.32 20.8492 414.948 20.8492C415.922 20.8492 416.719 20.579 417.339 20.0386C417.96 19.4982 418.27 18.6876 418.27 17.6068V16.596Z" fill="white"/>
<path d="M613.147 164H605.001V149.369H613.147V150.87H606.703V155.604H612.777V157.085H606.703V162.499H613.147V164ZM625.196 153.032V164H623.835L623.595 162.459H623.505C623.278 162.839 622.985 163.159 622.624 163.42C622.264 163.68 621.857 163.873 621.404 164C620.957 164.133 620.48 164.2 619.972 164.2C619.105 164.2 618.378 164.06 617.791 163.78C617.204 163.5 616.76 163.066 616.46 162.479C616.166 161.892 616.02 161.138 616.02 160.217V153.032H617.701V160.097C617.701 161.011 617.908 161.695 618.321 162.149C618.735 162.596 619.365 162.819 620.213 162.819C621.027 162.819 621.674 162.666 622.154 162.359C622.641 162.052 622.991 161.602 623.205 161.008C623.418 160.407 623.525 159.673 623.525 158.806V153.032H625.196ZM633.693 152.832C633.913 152.832 634.143 152.845 634.383 152.872C634.623 152.892 634.837 152.922 635.024 152.962L634.813 154.503C634.633 154.456 634.433 154.42 634.213 154.393C633.993 154.366 633.786 154.353 633.592 154.353C633.152 154.353 632.735 154.443 632.342 154.623C631.955 154.797 631.614 155.05 631.321 155.384C631.027 155.711 630.797 156.108 630.63 156.575C630.463 157.035 630.38 157.549 630.38 158.116V164H628.709V153.032H630.09L630.27 155.053H630.34C630.567 154.646 630.84 154.276 631.161 153.943C631.481 153.602 631.851 153.332 632.271 153.132C632.698 152.932 633.172 152.832 633.693 152.832ZM646.552 158.496C646.552 159.397 646.435 160.201 646.202 160.908C645.968 161.615 645.631 162.212 645.191 162.699C644.751 163.186 644.217 163.56 643.59 163.82C642.969 164.073 642.265 164.2 641.478 164.2C640.744 164.2 640.071 164.073 639.457 163.82C638.85 163.56 638.323 163.186 637.876 162.699C637.435 162.212 637.092 161.615 636.845 160.908C636.605 160.201 636.485 159.397 636.485 158.496C636.485 157.295 636.688 156.274 637.095 155.434C637.502 154.586 638.082 153.943 638.836 153.502C639.597 153.055 640.501 152.832 641.548 152.832C642.549 152.832 643.423 153.055 644.17 153.502C644.924 153.949 645.508 154.596 645.922 155.444C646.342 156.284 646.552 157.302 646.552 158.496ZM638.206 158.496C638.206 159.377 638.323 160.14 638.556 160.788C638.79 161.435 639.15 161.935 639.637 162.289C640.124 162.642 640.751 162.819 641.518 162.819C642.279 162.819 642.903 162.642 643.39 162.289C643.883 161.935 644.247 161.435 644.48 160.788C644.714 160.14 644.831 159.377 644.831 158.496C644.831 157.622 644.714 156.868 644.48 156.234C644.247 155.594 643.887 155.1 643.4 154.753C642.913 154.406 642.282 154.233 641.508 154.233C640.367 154.233 639.53 154.61 638.996 155.364C638.469 156.118 638.206 157.162 638.206 158.496ZM654.578 152.832C655.946 152.832 657.036 153.302 657.85 154.243C658.664 155.184 659.071 156.598 659.071 158.486C659.071 159.734 658.884 160.781 658.511 161.628C658.137 162.476 657.61 163.116 656.93 163.55C656.256 163.983 655.459 164.2 654.538 164.2C653.957 164.2 653.447 164.123 653.007 163.97C652.566 163.817 652.189 163.61 651.876 163.35C651.562 163.089 651.302 162.806 651.095 162.499H650.975C650.995 162.759 651.019 163.073 651.045 163.44C651.079 163.807 651.095 164.127 651.095 164.4V168.904H649.424V153.032H650.795L651.015 154.653H651.095C651.309 154.32 651.569 154.016 651.876 153.742C652.183 153.462 652.556 153.242 652.997 153.082C653.444 152.915 653.971 152.832 654.578 152.832ZM654.288 154.233C653.527 154.233 652.913 154.38 652.446 154.673C651.986 154.967 651.649 155.407 651.436 155.994C651.222 156.575 651.109 157.305 651.095 158.186V158.506C651.095 159.433 651.195 160.217 651.396 160.858C651.602 161.498 651.939 161.985 652.406 162.319C652.88 162.652 653.514 162.819 654.308 162.819C654.988 162.819 655.555 162.636 656.009 162.269C656.463 161.902 656.8 161.391 657.02 160.738C657.246 160.077 657.36 159.32 657.36 158.466C657.36 157.172 657.106 156.144 656.599 155.384C656.099 154.616 655.328 154.233 654.288 154.233ZM666.196 152.832C667.13 152.832 667.931 153.039 668.598 153.452C669.265 153.866 669.776 154.446 670.129 155.194C670.483 155.934 670.66 156.801 670.66 157.795V158.826H663.084C663.104 160.114 663.424 161.095 664.045 161.768C664.665 162.442 665.539 162.779 666.667 162.779C667.361 162.779 667.974 162.716 668.508 162.589C669.042 162.462 669.596 162.275 670.169 162.029V163.49C669.616 163.736 669.065 163.917 668.518 164.03C667.978 164.143 667.337 164.2 666.597 164.2C665.543 164.2 664.622 163.987 663.835 163.56C663.054 163.126 662.447 162.492 662.013 161.658C661.58 160.824 661.363 159.804 661.363 158.596C661.363 157.415 661.56 156.394 661.953 155.534C662.354 154.666 662.914 153.999 663.635 153.532C664.362 153.065 665.216 152.832 666.196 152.832ZM666.176 154.193C665.289 154.193 664.582 154.483 664.055 155.063C663.528 155.644 663.214 156.454 663.114 157.495H668.918C668.912 156.841 668.808 156.268 668.608 155.774C668.415 155.274 668.118 154.887 667.718 154.613C667.317 154.333 666.804 154.193 666.176 154.193Z" fill="white"/>
<path d="M352.663 307.423V46.5769C352.663 46.3685 352.622 46.1622 352.542 45.9698C352.462 45.7775 352.344 45.603 352.197 45.4563C352.049 45.3097 351.873 45.1939 351.68 45.1156C351.488 45.0372 351.281 44.998 351.073 45.0001C350.865 44.998 350.659 45.0372 350.466 45.1156C350.273 45.1939 350.098 45.3097 349.95 45.4563C349.802 45.603 349.684 45.7775 349.604 45.9698C349.524 46.1622 349.483 46.3685 349.483 46.5769V307.423C349.483 307.841 349.649 308.242 349.944 308.538C350.239 308.834 350.64 309 351.057 309C351.267 309.004 351.475 308.966 351.669 308.889C351.864 308.811 352.041 308.696 352.191 308.549C352.341 308.402 352.459 308.227 352.54 308.034C352.621 307.84 352.663 307.633 352.663 307.423Z" fill="white"/>
<path d="M352.506 304.301C349.483 262.86 326.64 221.61 286.038 205.841C266.743 198.017 245.212 197.769 225.742 205.147C203.891 213.504 185.188 227.917 162.486 234.887C135.736 242.696 107.233 242.057 80.858 233.058C79.0003 232.458 78.2132 235.328 80.0236 235.928C100.753 242.984 122.858 245.016 144.523 241.857C167.004 238.703 185.928 228.863 205.607 218.109C225.286 207.355 245.972 199.533 269.051 203.886C289.846 207.923 308.594 219.071 322.09 235.423C338.028 255.018 347.589 279.034 349.483 304.238C349.483 304.445 349.524 304.65 349.603 304.841C349.682 305.032 349.798 305.206 349.944 305.353C350.09 305.499 350.264 305.615 350.455 305.694C350.646 305.774 350.851 305.814 351.057 305.814C351.267 305.819 351.475 305.781 351.669 305.704C351.864 305.626 352.041 305.511 352.191 305.364C352.341 305.217 352.459 305.042 352.54 304.848C352.621 304.655 352.663 304.447 352.663 304.238L352.506 304.301Z" fill="white"/>
<path d="M273.286 201.804C247.168 189.473 252.08 152.006 243.642 129.268C234.59 104.921 210.928 93.5677 186.967 87.9225C185.093 87.481 184.29 90.3509 186.18 90.7924C198.796 93.363 210.807 98.3187 221.57 105.394C234.054 114.225 240.682 126.777 243.862 141.378C248.633 162.824 248.318 193.257 271.665 204.453C273.082 204.453 274.845 202.813 273.16 201.993L273.286 201.804ZM205.449 214.734C193.894 201.804 180.26 186.729 163.887 179.728C156.386 176.799 148.457 175.116 140.414 174.745C130.575 173.988 120.531 173.515 112.092 167.807C110.518 166.734 108.912 169.321 110.597 170.393C125.191 180.264 144.114 175.502 160.062 181.399C177.332 187.707 191.438 203.476 203.324 216.847C204.631 218.456 206.724 216.185 205.449 214.734ZM352.584 196.663C351.09 186.201 346.877 176.315 340.368 167.996C334.637 161.026 327.443 155.381 322.027 148.38C314.691 138.382 311.511 126.43 308.33 114.382C305.522 102.601 301.956 91.0128 297.657 79.6912C293.201 68.7477 287.077 58.3404 277.143 51.3076C275.553 50.2038 273.963 52.7898 275.648 53.8936C294.949 67.2655 299.766 94.1353 305.339 115.234C308.205 126.146 311.227 137.31 317.43 146.771C322.31 153.457 327.868 159.639 334.023 165.189C342.579 173.916 348.157 185.133 349.955 197.231C350.302 199.123 352.821 198.903 352.537 197.01L352.6 196.663H352.584ZM352.569 304.742C357.244 261.725 383.11 218.109 427.317 205.652C449.609 199.344 470.611 203.759 490.73 214.104C510.866 224.448 528.671 235.675 550.712 240.311C575.079 245.476 600.385 243.961 623.964 235.927C625.775 235.328 625.019 232.458 623.177 233.058C599.59 241.131 574.233 242.517 549.909 237.063C537.691 234.201 525.91 229.714 514.88 223.723C504.836 218.424 495.154 212.495 484.811 207.954C466.181 199.128 444.959 197.477 425.192 203.318C405.733 209.207 388.643 221.133 376.388 237.378C362.219 256.994 350.916 280.553 349.577 304.647C349.577 306.571 352.443 306.571 352.569 304.647V304.742Z" fill="white"/>
<path d="M432.166 204.359C455.466 193.352 455.025 163.013 459.779 141.473C462.959 127.123 469.336 114.729 481.568 105.93C492.455 98.6067 504.672 93.4955 517.525 90.887C519.43 90.4455 518.627 87.5756 516.738 88.0171C492.808 93.6623 468.942 105.079 460.157 129.331C451.719 152.101 456.615 189.568 430.466 201.867C428.734 202.687 430.245 205.242 432.009 204.422L432.166 204.359ZM501.782 215.302C513.7 202.025 526.499 187.707 543.769 181.336C559.685 175.439 578.797 180.201 593.265 170.33C594.84 169.257 593.265 166.671 591.738 167.744C583.552 173.294 573.791 174.051 564.188 174.65C555.885 174.967 547.692 176.662 539.943 179.665C523.602 186.666 510.157 201.552 498.539 214.356C497.264 215.807 499.389 217.92 500.664 216.469L501.782 215.302ZM352.584 154.466C355.418 146.945 359.543 139.959 364.801 133.872C371.035 126.146 377.805 118.861 385.047 112.049C398.097 99.3672 412.213 87.8345 427.238 77.5782C428.813 76.5059 427.238 73.9199 425.696 74.9921C410.159 85.5975 395.578 97.5431 382.119 110.692C374.857 117.571 368.081 124.948 361.841 132.769C356.613 138.976 352.51 146.053 349.719 153.678C349.121 155.507 352.033 156.296 352.632 154.466H352.584ZM290.745 211.959C290.368 224.29 289.88 237.946 281.504 247.88C273.129 257.814 260.566 262.356 248.837 265.762C239.423 268.326 230.474 272.371 222.326 277.746C214.628 282.642 208.102 289.179 203.214 296.889C203.081 297.117 203.011 297.375 203.011 297.638C203.011 297.902 203.081 298.16 203.214 298.387C203.348 298.616 203.54 298.805 203.77 298.935C204 299.066 204.26 299.134 204.525 299.133C204.789 299.131 205.049 299.06 205.277 298.926C205.506 298.793 205.695 298.602 205.827 298.372C210.991 289.226 220.484 282.193 229.363 276.895C239.25 271.029 250.427 269.136 260.959 264.784C271.507 260.432 281.504 254.913 287.25 245.168C292.981 235.423 293.611 223.092 293.894 211.959C293.89 211.565 293.73 211.188 293.45 210.91C293.17 210.632 292.792 210.477 292.398 210.477C291.58 210.477 290.824 210.098 290.824 210.887L290.745 211.959ZM411.228 210.729C411.542 221.956 411.999 234.004 417.887 243.938C423.791 253.872 433.819 259.36 444.178 263.586C454.521 267.812 465.903 269.893 475.759 275.665C484.654 280.994 494.147 287.996 499.295 297.173C500.255 298.845 502.837 297.173 501.908 295.659C496.968 287.924 490.362 281.394 482.575 276.548C474.445 271.243 465.522 267.272 456.143 264.784C444.524 261.157 431.552 256.206 423.491 246.682C415.447 237.157 414.612 223.06 414.235 210.761C414.235 208.868 411.039 208.837 411.243 210.761V210.729H411.228Z" fill="white"/>
<path d="M365.487 363.768C368.62 362.135 370.58 359.259 370.122 354.467C369.505 347.919 363.981 345.723 357.007 345.098L357.006 336.014H351.602L351.601 344.859C350.179 344.859 348.73 344.887 347.287 344.917L347.286 336.016L341.887 336.015L341.886 345.096C340.716 345.12 339.567 345.144 338.445 345.144V345.117L330.992 345.114L330.993 351.018C330.993 351.018 334.983 350.941 334.918 351.016C337.105 351.017 337.82 352.317 338.025 353.44L338.027 363.787V378.323C337.931 379.027 337.525 380.152 335.996 380.154C336.065 380.217 332.065 380.154 332.065 380.154L330.993 386.756H338.024C339.334 386.757 340.621 386.778 341.884 386.789L341.888 395.975L347.286 395.976L347.284 386.886C348.769 386.917 350.202 386.931 351.602 386.929L351.601 395.976H357.004L357.007 386.805C366.09 386.272 372.448 383.93 373.239 375.2C373.876 368.172 370.644 365.035 365.487 363.768ZM347.416 351.416C350.463 351.416 360.048 350.423 360.049 356.939C360.048 363.185 350.467 362.455 347.416 362.455V351.416ZM347.414 380.199L347.416 368.028C351.077 368.027 362.562 366.95 362.563 374.111C362.565 380.978 351.077 380.196 347.414 380.199Z" fill="white"/>
</svg>
