<svg width="65" height="48" viewBox="0 0 65 48" fill="none" xmlns="http://www.w3.org/2000/svg">
<path d="M53.9227 47.665H11.0063C5.40663 47.665 0.851624 43.11 0.851624 37.5104V10.4171C0.851624 4.81816 5.40734 0.262451 11.0063 0.262451H53.9227C59.5216 0.262451 64.0766 4.81816 64.0766 10.4171V37.5104C64.0766 43.11 59.5216 47.665 53.9227 47.665ZM11.0063 3.23192C7.04416 3.23192 3.82109 6.45499 3.82109 10.4171V37.5104C3.82109 41.4725 7.04416 44.6963 11.0063 44.6963H53.9227C57.8848 44.6963 61.1079 41.4725 61.1079 37.5104V10.4171C61.1079 6.45499 57.8848 3.23192 53.9227 3.23192H11.0063Z" fill="white"/>
<path d="M8.61001 10.5582C16.1998 17.9541 23.7896 25.3494 31.3794 32.7453C32.7943 34.1236 34.9657 31.9571 33.5488 30.576C25.959 23.1807 18.3691 15.7848 10.7793 8.3896C9.3645 7.0106 7.19307 9.17781 8.61001 10.5582Z" fill="white"/>
<path d="M33.5488 32.7454C41.1386 25.3502 48.7284 17.9543 56.3182 10.5591C57.7345 9.17866 55.5644 7.01075 54.1489 8.38976C46.5591 15.785 38.9693 23.1809 31.3795 30.5761C29.9632 31.9565 32.1332 34.1244 33.5488 32.7454Z" fill="white"/>
<path d="M56.2346 37.9805C51.1843 33.1908 46.1333 28.4019 41.0831 23.6122C39.6507 22.2543 37.4778 24.4194 38.9137 25.7816C43.964 30.5712 49.015 35.3601 54.0653 40.1498C55.4977 41.5077 57.6705 39.3419 56.2346 37.9805Z" fill="white"/>
<path d="M10.9999 40.149C16.0502 35.3594 21.1012 30.5704 26.1514 25.7808C27.5866 24.4193 25.4152 22.2528 23.9821 23.6115C18.9318 28.4011 13.8809 33.19 8.8306 37.9797C7.39539 39.3411 9.56682 41.5084 10.9999 40.149Z" fill="white"/>
</svg>
