<svg width="57" height="58" viewBox="0 0 57 58" fill="none" xmlns="http://www.w3.org/2000/svg">
<path d="M55.5033 47.2911C55.4766 46.9426 55.3208 46.6075 55.0653 46.3575L32.9909 24.283C33.8594 22.2371 34.3178 20.0215 34.3178 17.7317C34.3178 13.2567 32.5724 9.0463 29.4133 5.87937C26.2497 2.71874 22.0423 0.975098 17.5648 0.975098C13.0851 0.975098 8.88487 2.71933 5.71618 5.88193C-0.821613 12.4162 -0.82299 23.0442 5.71519 29.5779C8.88369 32.7472 13.0853 34.4926 17.5626 34.4926C19.853 34.4926 22.0631 34.0304 24.1139 33.1608L31.3658 40.4182C31.6675 40.7161 32.0654 40.8742 32.4947 40.8603L36.4467 40.7216L36.3177 44.6835C36.3055 45.1014 36.4564 45.5081 36.7592 45.8057C37.0511 46.103 37.4611 46.2647 37.8773 46.2478L41.8438 46.1123L41.7015 50.0698C41.6891 50.4881 41.8497 50.8956 42.1416 51.1931C42.4433 51.4905 42.7947 51.6504 43.2705 51.6358L47.2272 51.5013L47.0946 55.4594C47.0714 55.8984 47.2563 56.3206 47.5702 56.6204C47.8597 56.8837 48.221 57.0255 48.6017 57.0255C48.6564 57.0255 48.7124 57.0231 48.7683 57.0182L54.8356 56.3444C55.6555 56.255 56.2526 55.5234 56.1822 54.7017L55.5033 47.2911ZM15.5409 15.7084C13.6772 17.57 10.6643 17.57 8.80463 15.7084C6.9422 13.8461 6.9422 10.8338 8.80463 8.97333C10.6643 7.11287 13.6763 7.1111 15.5409 8.97274C17.4007 10.833 17.3996 13.8473 15.5409 15.7084ZM50.3241 47.7965C50.1027 48.018 49.8059 48.1285 49.5176 48.1285C49.2293 48.1285 48.9323 48.0178 48.711 47.7965L29.9292 29.0091C30.4521 28.4453 30.9277 27.8518 31.3595 27.2277L50.3239 46.1884C50.7668 46.6313 50.7668 47.3538 50.3241 47.7965Z" fill="white"/>
</svg>
