<svg width="67" height="60" viewBox="0 0 67 60" fill="none" xmlns="http://www.w3.org/2000/svg">
<path d="M53.632 59.5C53.1165 59.5 52.6044 59.3475 52.1652 59.0499L35.5701 47.7998L26.6695 54.2005C25.9714 54.7021 25.0716 54.8285 24.2611 54.5389C23.4515 54.2485 22.8367 53.5784 22.6173 52.7474L18.1481 35.8208L2.17939 29.7185C1.17409 29.3341 0.507376 28.373 0.500061 27.2973C0.492746 26.2215 1.14622 25.2513 2.14664 24.8534L62.8657 0.707354C63.1412 0.590383 63.4328 0.522847 63.7268 0.504744C63.832 0.498478 63.9375 0.498478 64.0424 0.504396C64.6513 0.540601 65.2494 0.788467 65.7161 1.24591C65.7645 1.29325 65.8105 1.34164 65.8541 1.39212C66.2407 1.83354 66.4532 2.37175 66.4933 2.92005C66.503 3.0579 66.5023 3.1975 66.4901 3.3371C66.4818 3.43667 66.4675 3.53588 66.4473 3.6344L56.1982 57.3778C56.0335 58.2412 55.4455 58.9639 54.6331 59.3005C54.3109 59.4342 53.9706 59.5 53.632 59.5ZM37.0272 42.4777L51.8095 52.4985L59.7843 10.6801L30.9815 38.3792L36.9576 42.4307C36.9816 42.4456 37.0046 42.4616 37.0272 42.4777ZM24.7216 40.2493L26.7008 47.7445L30.9651 44.6778L25.3813 40.8923C25.1218 40.7168 24.8996 40.4982 24.7216 40.2493ZM10.3008 27.2308L21.2657 31.4205C22.0512 31.7206 22.6441 32.3806 22.8587 33.1931L24.2492 38.4599C24.313 37.8525 24.5885 37.2808 25.0361 36.8502L52.4811 10.4573L10.3008 27.2308Z" fill="white"/>
</svg>
